# xmcd
#
# Track frame offsets: 
#        150
#        24466
#        43061
#        65078
#        81716
#        97590
#        113468
#        131293
#        151285
#        175682
#        193476
#        211197
#        235756
#        255647
#        275993
#        296047
#        308100
#        324345
#
# Disc length: 4634 seconds
#
# Revision: 0
# Processed by: cddbd v1.5.2PL0 Copyright (c) Steve Scherf et al.
# Submitted via: ExactAudioCopyFreeDBPlugin 1.0
#
DISCID=00121812
DTITLE=Various Artist - Rap Attitude
DYEAR=2012
DGENRE=Rap
TTITLE0=Dee Nasty  - Paname city rappin'
TTITLE1=Destroy Man and Jhonygo  - On l'balance
TTITLE2=Assasin - La Formule Secrète
TTITLE3=EJM - Elément Dangereux
TTITLE4=Saï Saï - Rouleurs à l'heure
TTITLE5=Tonton David - Peuples Du Monde
TTITLE6=Suprême NTM - Le monde De Demain
TTITLE7=IAM - Planète Mars
TTITLE8=Les Little - Ressens le son
TTITLE9=SOON E MC - Elucider ce mystère
TTITLE10=IAM - Je danse le MIA
TTITLE11=Ministère A.M.E.R. - Plus vite que les balles
TTITLE12=Akhenaton - J'ai pas de face
TTITLE13=Alliance Ethink Feat. Vinia Mojica - Respect
TTITLE14=Les Sages Poètes De La Rue - Qu'est-ce qui fait marcher les s
TTITLE14=ages
TTITLE15=Tout Simplement Noir - A propos de tass
TTITLE16=X-MEN - Pendez-les,Bandez-les,Descendez-les
TTITLE17=Doc Gynéco - Viens voir le docteur
EXTD=
EXTT0=
EXTT1=
EXTT2=
EXTT3=
EXTT4=
EXTT5=
EXTT6=
EXTT7=
EXTT8=
EXTT9=
EXTT10=
EXTT11=
EXTT12=
EXTT13=
EXTT14=
EXTT15=
EXTT16=
EXTT17=
PLAYORDER=
